<svg xmlns="http://www.w3.org/2000/svg" width="64" height="64" viewBox="0 0 64 64" fill="none">
  <rect width="64" height="64" rx="16" fill="#0C0C0C"/>
  <path d="M42 18c-3.2-2.8-7.2-4.2-12-4.2-3.7 0-6.8 1-9.3 3-2.4 2-3.6 4.6-3.6 7.8 0 2.7.9 4.9 2.7 6.6 1.8 1.7 4.7 3 8.7 3.9l4.8 1.1c2.6.6 4.4 1.3 5.3 2.1.9.8 1.4 1.8 1.4 3.1 0 1.7-.8 3.1-2.3 4.2-1.5 1.1-3.6 1.7-6.3 1.7-5 0-8.9-1.6-11.7-4.8l-4.9 5.1c3.8 4.3 9 6.5 15.7 6.5 4.4 0 8-1 10.8-3.1 2.8-2.1 4.2-4.9 4.2-8.5 0-2.8-.9-5.1-2.8-6.8-1.9-1.7-5-3-9.4-3.9l-4.5-1c-2.2-.5-3.8-1.1-4.8-1.9-1-.8-1.5-1.9-1.5-3.4 0-1.6.7-2.9 2.1-3.9 1.4-1 3.3-1.5 5.8-1.5 3.9 0 7.1 1 9.6 3l4.6-4.9Z" fill="#8B5CF6"/>
</svg>
